<?xml version="1.0" standalone="no"?>
<!DOCTYPE svg PUBLIC "-//W3C//DTD SVG 20010904//EN"
 "http://www.w3.org/TR/2001/REC-SVG-20010904/DTD/svg10.dtd">
<svg version="1.0" xmlns="http://www.w3.org/2000/svg"
 width="1024.000000pt" height="1024.000000pt" viewBox="0 0 1024.000000 1024.000000"
 preserveAspectRatio="xMidYMid meet">

<g transform="translate(0.000000,1024.000000) scale(0.100000,-0.100000)"
fill="#000000" stroke="none">
<path d="M0 5120 l0 -5120 5120 0 5120 0 0 5120 0 5120 -5120 0 -5120 0 0
-5120z m5717 3634 c40 -32 84 -92 155 -211 31 -52 49 -73 63 -73 24 0 104 36
163 74 23 14 44 26 47 26 17 0 -3 -44 -60 -135 -35 -56 -102 -174 -149 -261
-47 -88 -90 -165 -96 -171 -11 -14 -398 -16 -559 -4 l-85 6 95 66 c67 46 94
71 93 85 0 21 -176 333 -250 445 -48 71 -102 133 -149 167 l-30 22 362 -3 361
-2 39 -31z m-822 -47 c29 -14 71 -47 100 -79 47 -51 145 -211 145 -236 0 -15
-94 -170 -173 -285 -35 -51 -80 -120 -101 -155 -21 -35 -41 -62 -45 -60 -3 2
-48 30 -99 63 -51 33 -160 104 -243 157 -83 53 -155 98 -161 100 -14 5 236
402 282 448 53 53 94 70 175 70 53 0 82 -6 120 -23z m1377 -834 c177 -289 181
-297 182 -362 1 -78 -31 -141 -101 -196 -79 -61 -130 -75 -282 -75 l-127 0
-65 108 c-200 328 -229 376 -229 383 0 4 96 67 213 140 116 73 228 145 247
161 19 15 37 28 41 28 3 0 58 -84 121 -187z m-3535 121 c-3 -3 -12 -4 -19 -1
-8 3 -5 6 6 6 11 1 17 -2 13 -5z m1873 -238 c52 -105 118 -231 146 -280 28
-50 55 -102 59 -115 l7 -24 -28 20 c-16 11 -73 43 -126 71 l-98 50 -116 -192
c-136 -223 -207 -354 -225 -413 -7 -24 -16 -43 -20 -43 -4 0 -18 17 -30 38
-13 20 -74 120 -138 222 -138 224 -163 275 -165 344 -1 60 14 94 109 246 35
58 65 110 65 116 0 6 -40 40 -90 75 -49 35 -90 67 -90 72 0 4 145 7 323 5
l322 -3 95 -189z m-1560 114 l45 -42 -65 48 c-81 59 -93 71 -55 51 17 -8 50
-34 75 -57z m-610 36 c0 -2 -12 -11 -27 -20 l-28 -17 24 20 c23 21 31 25 31
17z m427 -35 c62 -29 133 -98 133 -130 0 -30 -23 -61 -62 -85 -53 -34 -161 2
-193 64 -16 32 -15 53 7 133 10 33 15 37 42 37 17 0 50 -9 73 -19z m-181 -23
c-4 -18 -11 -66 -16 -107 -7 -61 -13 -78 -38 -105 -16 -17 -32 -39 -35 -48 -9
-27 -34 -22 -125 22 -93 45 -97 53 -54 121 52 82 158 149 236 149 38 0 38 0
32 -32z m-306 12 c0 -5 -5 -10 -11 -10 -5 0 -7 5 -4 10 3 6 8 10 11 10 2 0 4
-4 4 -10z m711 -322 c14 -79 7 -112 -48 -223 -49 -101 -103 -152 -184 -175
-40 -12 -99 25 -118 73 -14 37 -14 39 25 95 51 74 79 90 131 74 22 -7 57 -23
77 -37 l36 -24 0 23 c0 28 -80 106 -108 106 -38 0 -138 -22 -157 -35 -18 -11
-27 -10 -59 6 -21 10 -47 28 -57 40 -19 22 -19 23 1 53 11 17 28 43 37 58 25
38 58 55 77 39 21 -18 156 -26 198 -12 19 6 50 27 69 47 l34 35 17 -38 c9 -21
22 -68 29 -105z m-626 8 c67 -28 85 -41 110 -77 16 -24 41 -53 54 -64 75 -59
73 -54 55 -113 -19 -65 -15 -86 31 -139 28 -33 32 -42 19 -47 -20 -8 -95 11
-159 39 -85 38 -196 161 -225 249 -12 38 -10 152 4 175 10 16 23 14 111 -23z
m-238 -48 c-3 -8 -6 -5 -6 6 -1 11 2 17 5 13 3 -3 4 -12 1 -19z m10 -110 c-3
-8 -6 -5 -6 6 -1 11 2 17 5 13 3 -3 4 -12 1 -19z m3358 -125 l7 -118 259 -3
c286 -3 385 6 466 43 29 13 53 22 53 19 0 -7 -40 -75 -150 -254 -46 -74 -99
-162 -117 -195 -61 -106 -112 -165 -162 -189 -41 -18 -64 -21 -197 -21 l-152
0 -6 -77 c-4 -43 -9 -91 -12 -108 l-6 -29 -25 37 c-14 20 -38 55 -53 77 -15
22 -48 72 -72 110 -25 39 -77 121 -117 182 l-73 113 57 92 c32 51 92 149 134
218 100 163 144 228 152 224 4 -2 10 -57 14 -121z m-3291 -19 c3 -8 2 -12 -4
-9 -6 3 -10 10 -10 16 0 14 7 11 14 -7z m36 -55 c15 -28 5 -23 -15 7 -9 15
-12 23 -6 20 6 -4 16 -16 21 -27z m2757 -246 c-4 -120 -7 -262 -7 -315 l0 -97
-272 6 c-304 6 -321 9 -396 77 -88 80 -108 200 -52 321 40 85 126 212 148 218
10 3 145 5 301 6 l284 1 -6 -217z m-2283 -5 c25 -35 22 -152 -4 -178 -24 -24
-77 -26 -109 -4 -22 16 -23 22 -19 95 3 43 10 85 18 93 20 25 95 21 114 -6z
m26 -316 c31 -25 40 -120 16 -157 -41 -63 -133 -70 -180 -14 -29 34 -35 96
-13 139 23 46 135 66 177 32z m812 -79 c24 -9 44 -17 45 -17 1 -1 4 -13 8 -29
7 -27 6 -27 -39 -27 -39 0 -46 -3 -51 -22 -3 -13 -2 -245 3 -516 5 -282 5
-576 -1 -685 -4 -106 -6 -211 -2 -234 l6 -43 63 0 c78 0 76 6 76 -191 l0 -145
-122 4 c-68 2 -129 5 -135 7 -9 3 -13 29 -13 85 0 45 -7 113 -15 153 -12 60
-14 197 -12 842 1 424 6 776 11 783 15 24 70 52 103 52 18 0 52 -7 75 -17z
m277 -128 c3 -4 8 -51 11 -106 l5 -100 840 3 c462 1 869 3 905 4 36 1 246 2
468 3 l402 1 28 41 27 40 90 -7 c50 -4 163 -8 252 -9 89 -2 167 -6 173 -10 7
-4 52 -62 101 -129 49 -66 110 -147 136 -180 25 -32 93 -122 150 -200 58 -77
126 -168 151 -201 26 -33 85 -112 133 -175 48 -63 98 -126 111 -140 58 -61 58
-62 58 -243 0 -157 -1 -169 -17 -162 -87 37 -183 41 -241 11 -17 -9 -51 -40
-77 -71 -26 -30 -53 -55 -59 -55 -6 0 -29 32 -51 72 -22 39 -76 117 -120 173
-44 55 -93 123 -109 150 -29 50 -106 161 -201 290 -28 39 -89 124 -135 190
-72 104 -257 345 -304 397 -15 17 -93 17 -1338 14 -728 -2 -1324 -4 -1325 -5
-2 0 -3 -16 -3 -35 0 -21 6 -36 15 -40 13 -5 15 -49 15 -315 l0 -309 54 -6
c30 -4 71 -4 91 0 l37 7 -6 46 c-4 36 -10 471 -7 554 1 15 15 17 151 17 l150
0 0 -187 c0 -104 3 -245 7 -315 l6 -128 67 0 c42 0 71 5 77 13 5 7 6 83 2 187
-4 96 -7 232 -8 302 l-1 126 148 4 c81 2 149 2 152 0 3 -2 5 -104 6 -225 0
-122 1 -264 2 -314 l2 -93 59 0 c118 0 146 18 116 76 -12 24 -15 77 -15 292
l0 263 158 -3 157 -3 0 -310 0 -310 80 -3 80 -3 0 313 0 313 150 0 150 0 6
-300 c3 -165 7 -306 8 -314 1 -11 18 -13 87 -8 47 2 87 7 90 10 2 2 0 17 -6
33 -7 17 -12 135 -13 304 l-2 275 150 0 150 0 5 -302 c3 -199 9 -306 16 -313
7 -7 42 -10 90 -8 91 3 82 -14 63 138 -16 128 -17 450 -1 478 l13 23 32 -19
c20 -13 62 -67 112 -144 44 -69 93 -139 108 -158 56 -65 71 -108 77 -213 l5
-99 90 -3 c52 -2 91 -8 93 -14 9 -26 110 -172 167 -241 34 -41 84 -109 112
-150 28 -41 78 -107 111 -146 56 -66 88 -113 80 -117 -2 -1 -78 -1 -170 1
l-167 3 -6 47 c-20 144 -65 246 -149 337 -45 50 -61 59 -141 86 -75 26 -105
31 -185 31 -53 0 -122 -6 -155 -15 -39 -10 -133 -17 -273 -21 -194 -5 -217 -4
-275 15 -103 32 -207 36 -307 9 l-85 -23 -935 2 c-514 2 -937 4 -939 7 -2 2 0
115 5 251 5 143 5 412 0 636 -9 416 -9 411 42 420 34 6 132 0 141 -8z m-685
-218 c21 -21 23 -34 29 -191 4 -93 7 -338 7 -544 0 -352 -1 -374 -17 -367
-102 44 -156 58 -239 62 -153 9 -265 -32 -364 -130 -82 -83 -117 -169 -135
-329 l-6 -58 -164 0 c-167 0 -210 8 -219 39 -3 9 -8 210 -11 446 -4 359 -3
439 9 486 19 72 192 484 219 523 11 15 40 41 65 57 l46 29 378 0 379 0 23 -23z
m-78 -1181 c67 -31 129 -96 166 -174 94 -197 -26 -444 -245 -507 -75 -22 -130
-14 -224 31 -125 60 -202 173 -210 308 -9 152 77 297 204 347 89 35 227 32
309 -5z m2831 -10 c66 -36 136 -103 162 -154 68 -134 34 -322 -78 -431 -164
-160 -449 -106 -556 105 -28 54 -30 67 -30 164 0 87 4 113 22 152 64 139 170
200 338 195 77 -2 98 -7 142 -31z m827 18 c69 -24 156 -108 192 -186 25 -54
29 -75 29 -148 -1 -111 -30 -178 -114 -260 -102 -100 -235 -129 -364 -80 -72
27 -172 117 -207 187 -35 68 -40 186 -11 263 45 121 107 184 214 221 67 24
196 25 261 3z m-1397 -49 c9 -3 4 -23 -17 -68 -17 -38 -33 -97 -40 -148 -6
-46 -15 -87 -19 -92 -12 -12 -459 -21 -644 -12 -211 9 -202 0 -191 180 4 74
12 131 19 138 8 9 122 11 446 9 239 -1 439 -4 446 -7z m858 -5 c-21 -23 -38
-25 -54 -7 -15 19 -4 27 37 27 34 0 35 0 17 -20z m-1911 -21 c3 -17 6 -109 6
-203 0 -138 -3 -176 -15 -193 -16 -22 -17 -22 -243 -16 -161 4 -231 9 -240 18
-18 17 -27 179 -17 318 l7 107 248 0 248 0 6 -31z m3491 -153 c98 -41 101
-212 5 -261 -70 -36 -157 -5 -190 68 -25 53 -25 83 -1 127 37 71 111 97 186
66z m-5001 -760 c19 -8 36 -18 39 -23 3 -5 9 -65 13 -134 3 -68 7 -125 8 -125
0 -1 62 -4 136 -6 l135 -3 0 127 c0 146 5 157 76 165 38 4 47 1 68 -21 l24
-25 -2 -323 -2 -323 -24 -24 c-30 -31 -78 -32 -108 -3 -22 23 -35 100 -36 215
l-1 57 -139 0 -139 0 5 -99 c7 -126 0 -164 -33 -179 -40 -19 -83 -14 -108 11
-24 24 -24 25 -28 338 -2 173 0 326 5 341 5 15 20 31 35 37 37 13 38 13 76 -3z
m3781 -17 c28 -10 66 -32 85 -49 30 -26 33 -31 19 -40 -9 -5 -31 -32 -49 -59
l-32 -50 -40 27 c-32 20 -56 27 -107 30 -70 4 -94 -6 -105 -44 -11 -38 16 -55
135 -85 64 -17 130 -40 152 -55 71 -47 98 -162 58 -250 -56 -123 -186 -170
-359 -129 -34 8 -75 22 -90 32 -31 19 -102 84 -102 93 0 3 23 30 50 58 l51 53
32 -25 c45 -35 92 -52 158 -60 47 -6 59 -4 82 14 26 21 37 63 19 74 -5 3 -54
18 -109 34 -122 35 -176 64 -217 115 -28 35 -31 45 -31 110 0 65 3 77 33 119
74 107 220 141 367 87z m-4039 -3 c19 -26 18 -91 -2 -121 -15 -23 -22 -25
-105 -25 l-88 0 -3 -261 -3 -261 -28 -24 c-59 -51 -129 -17 -142 70 -4 25 -6
143 -4 261 l4 216 -50 -3 c-27 -1 -71 -1 -98 0 -43 2 -49 5 -64 37 -21 44 -9
104 24 120 14 7 115 11 283 11 247 -1 262 -2 276 -20z m1447 5 c19 -16 32 -71
22 -100 -15 -48 -26 -51 -206 -51 l-169 0 0 -60 0 -60 155 0 c177 0 170 4 169
-88 0 -35 -5 -57 -15 -63 -7 -5 -81 -9 -164 -9 l-150 0 3 -61 4 -60 170 2
c167 2 171 2 190 -20 24 -30 24 -92 -1 -122 l-19 -24 -237 1 c-210 2 -238 4
-256 19 -18 17 -19 34 -19 351 0 314 1 334 19 346 27 19 481 19 504 -1z m524
4 c12 -9 30 -41 41 -77 72 -229 106 -328 112 -321 4 4 13 31 19 58 24 102 94
306 113 330 15 20 28 25 63 25 75 0 74 2 178 -347 12 -40 24 -73 28 -73 3 0
16 33 28 73 46 140 114 318 128 333 21 21 105 18 133 -4 l22 -18 -80 -239
c-45 -132 -100 -287 -124 -345 -41 -100 -44 -105 -80 -113 -81 -19 -105 14
-184 251 l-47 143 -15 -33 c-8 -18 -36 -101 -63 -184 -27 -84 -56 -158 -66
-165 -9 -8 -36 -14 -60 -14 -74 0 -73 -3 -214 412 -49 143 -89 270 -89 282 0
11 8 25 18 30 26 16 115 13 139 -4z m1286 -3 c15 -17 201 -442 263 -601 l28
-73 -27 -24 c-41 -35 -101 -33 -136 5 -15 16 -33 47 -41 70 l-13 41 -157 0
-157 0 -13 -44 c-27 -97 -104 -124 -176 -63 l-27 23 43 100 c23 54 55 124 70
154 15 30 58 132 95 225 37 94 75 178 83 188 22 25 142 25 165 -1z m1567 -2
c25 -25 27 -95 4 -128 -14 -20 -23 -22 -105 -22 l-89 0 0 -256 0 -256 -29 -29
c-16 -16 -39 -29 -51 -29 -29 0 -76 26 -84 45 -3 9 -6 131 -6 271 l0 254 -79
0 c-96 0 -107 4 -127 42 -19 36 -10 103 14 118 10 5 127 10 275 10 244 0 258
-1 277 -20z m645 -5 c14 -13 25 -35 25 -49 0 -31 -18 -78 -33 -88 -7 -4 -87
-8 -179 -8 l-168 0 0 -59 0 -59 160 -7 c158 -7 160 -8 166 -31 4 -14 3 -44 0
-69 -8 -52 -18 -57 -106 -53 -30 1 -92 1 -137 0 l-83 -2 0 -55 0 -55 168 0
c182 0 190 -2 206 -57 8 -24 -9 -99 -24 -108 -5 -3 -116 -7 -246 -8 l-236 -2
-19 24 c-18 22 -19 43 -19 345 0 275 2 325 16 344 15 22 19 22 250 22 l235 0
24 -25z m-535 -1018 c205 -3 230 -5 281 -25 102 -41 181 -132 225 -262 17 -50
19 -88 18 -435 -2 -418 -6 -457 -59 -570 -37 -79 -60 -107 -124 -154 -98 -70
139 -65 -2844 -63 l-2688 1 -72 38 c-135 71 -215 183 -237 329 -7 44 -10 217
-8 460 3 378 4 391 26 445 40 99 118 172 232 216 41 15 121 17 865 22 784 6
3914 4 4385 -2z"/>
<path d="M6958 6023 c-27 -2 -48 -7 -47 -11 0 -13 74 -115 270 -376 25 -34 78
-110 119 -171 40 -60 94 -139 120 -175 26 -36 91 -127 144 -202 103 -146 103
-146 175 -132 31 6 31 7 31 73 0 77 -8 93 -114 226 -89 111 -276 360 -421 560
-59 83 -119 165 -132 183 -26 34 -25 34 -145 25z"/>
<path d="M2496 5968 c-66 -120 -148 -312 -150 -352 -1 -24 4 -31 29 -38 17 -4
165 -11 330 -15 263 -5 302 -4 313 9 9 12 12 69 10 234 l-3 219 -247 3 -247 2
-35 -62z"/>
<path d="M2930 4828 c-56 -39 -75 -73 -75 -136 0 -172 206 -226 293 -77 59
103 -18 235 -138 235 -32 0 -57 -7 -80 -22z"/>
<path d="M5783 4839 c-41 -12 -90 -72 -98 -120 -10 -56 12 -114 58 -155 38
-35 42 -36 98 -32 94 7 149 60 157 150 3 44 0 59 -20 87 -41 62 -125 92 -195
70z"/>
<path d="M6633 4839 c-61 -18 -113 -113 -97 -182 25 -113 130 -160 231 -102
78 46 103 134 60 210 -39 69 -113 97 -194 74z"/>
<path d="M5738 3703 c-20 -59 -36 -109 -34 -110 1 -1 41 -6 88 -9 l86 -7 -46
117 c-26 64 -49 116 -52 116 -3 0 -22 -48 -42 -107z"/>
<path d="M3260 2655 c-71 -20 -149 -67 -221 -133 -72 -66 -109 -137 -109 -208
0 -29 -5 -56 -10 -59 -6 -4 -7 -12 -3 -18 4 -7 6 -20 5 -29 -2 -10 0 -18 5
-18 4 0 14 -14 22 -30 23 -54 138 -157 215 -195 93 -46 165 -58 311 -53 130 5
167 17 247 80 67 53 77 79 79 213 l1 120 -163 -3 c-90 -1 -185 -5 -211 -8 -52
-6 -56 -13 -42 -84 9 -44 51 -60 154 -60 64 0 82 -3 87 -16 3 -8 1 -20 -5 -26
-19 -19 -116 -39 -217 -44 -91 -5 -104 -3 -145 18 -25 13 -55 38 -67 56 -25
37 -39 123 -28 173 8 41 65 103 120 132 62 32 168 28 265 -11 72 -30 75 -30
103 -14 50 30 99 80 95 99 -4 23 -87 77 -158 104 -74 29 -251 36 -330 14z"/>
<path d="M4420 2652 l-55 -3 -52 -112 c-29 -62 -72 -161 -97 -221 -25 -60 -72
-150 -105 -200 -63 -95 -91 -152 -91 -184 0 -15 10 -21 46 -26 25 -3 62 -3 83
0 30 5 41 14 66 58 l30 51 186 3 186 2 19 -37 c36 -71 39 -73 130 -73 46 0 85
4 88 9 8 12 -21 90 -92 251 -32 74 -75 178 -95 230 -52 139 -96 233 -114 248
-9 6 -31 11 -47 10 -17 -1 -56 -3 -86 -6z m99 -366 c73 -120 73 -120 -50 -113
-56 4 -104 9 -107 11 -2 3 1 19 8 37 14 34 87 149 94 149 3 0 27 -38 55 -84z"/>
<path d="M5165 2652 c-7 -4 -9 -130 -7 -360 l4 -353 23 -15 c16 -10 42 -14 87
-12 l63 3 3 188 c1 103 6 187 10 187 4 0 32 -37 62 -81 68 -100 127 -156 174
-164 62 -12 82 0 133 78 103 160 136 207 145 207 5 0 7 -8 4 -18 -3 -10 -7
-96 -7 -191 -2 -210 -1 -212 105 -214 50 -2 69 2 76 13 6 9 10 165 10 378 l0
362 -107 0 -108 0 -74 -138 c-70 -128 -157 -272 -167 -272 -2 0 -22 37 -45 83
-23 45 -70 134 -106 198 -56 102 -68 117 -95 123 -42 8 -171 7 -183 -2z"/>
<path d="M6347 2554 c-11 -164 -8 -545 3 -585 7 -26 19 -40 39 -49 39 -16 585
-10 601 6 12 12 16 142 5 153 -4 3 -103 4 -220 3 l-213 -4 -4 24 c-2 12 -1 42
1 66 l3 42 189 0 189 0 0 69 0 70 -52 6 c-29 4 -116 5 -193 3 l-140 -3 -3 61
-3 61 220 6 c122 3 224 8 228 10 5 3 6 40 3 84 l-5 78 -321 3 -321 2 -6 -106z"/>
</g>
</svg>
